<svg xmlns="http://www.w3.org/2000/svg" width="512" height="512" viewBox="0 0 512 512">
  <defs>
    <clipPath id="c0"><rect x="0" y="0" width="256.0" height="256.0"/></clipPath>
    <clipPath id="c1"><rect x="256.0" y="0" width="256.0" height="256.0"/></clipPath>
    <clipPath id="c2"><rect x="0" y="256.0" width="256.0" height="256.0"/></clipPath>
    <clipPath id="c3"><rect x="256.0" y="256.0" width="256.0" height="256.0"/></clipPath>
  </defs>
  <g clip-path="url(#c0)">
    <path d="M278.6398210290828 476.0Q254.5234899328859 476.0 239.51230425055928 460.98881431767336Q224.50111856823267 445.9776286353467 224.50111856823267 420.8769574944071V387.40939597315435H287.49888143176736V411.03355704697987Q287.49888143176736 425.7986577181208 301.27964205816556 425.7986577181208H330.31767337807605V476.0Z" fill="#f9df6d" stroke="#f9df6d" stroke-width="26" stroke-linejoin="round" stroke-linecap="round"/>
    <path d="M256.0 394.29977628635345Q191.03355704697987 394.29977628635345 152.6442953020134 358.6174496644295Q114.25503355704697 322.93512304250555 114.25503355704697 256.49217002237134V173.80760626398208Q114.25503355704697 107.36465324384784 152.6442953020134 71.68232662192392Q191.03355704697987 36.0 256.0 36.0Q320.96644295302013 36.0 359.35570469798654 71.68232662192392Q397.744966442953 107.36465324384784 397.744966442953 173.80760626398208V256.49217002237134Q397.744966442953 322.93512304250555 359.35570469798654 358.6174496644295Q320.96644295302013 394.29977628635345 256.0 394.29977628635345ZM256.0 336.2237136465324Q292.420581655481 336.2237136465324 312.5995525727069 315.06040268456377Q332.77852348993287 293.89709172259506 332.77852348993287 258.4608501118568V171.83892617449663Q332.77852348993287 136.40268456375838 312.5995525727069 115.23937360178971Q292.420581655481 94.07606263982103 256.0 94.07606263982103Q220.07158836689038 94.07606263982103 199.64653243847874 115.23937360178971Q179.2214765100671 136.40268456375838 179.2214765100671 171.83892617449663V258.4608501118568Q179.2214765100671 293.89709172259506 199.64653243847874 315.06040268456377Q220.07158836689038 336.2237136465324 256.0 336.2237136465324Z" fill="#f9df6d" stroke="#f9df6d" stroke-width="64" stroke-linejoin="round" stroke-linecap="round"/>
  </g>
  <g clip-path="url(#c1)">
    <path d="M278.6398210290828 476.0Q254.5234899328859 476.0 239.51230425055928 460.98881431767336Q224.50111856823267 445.9776286353467 224.50111856823267 420.8769574944071V387.40939597315435H287.49888143176736V411.03355704697987Q287.49888143176736 425.7986577181208 301.27964205816556 425.7986577181208H330.31767337807605V476.0Z" fill="#a0c35a" stroke="#a0c35a" stroke-width="26" stroke-linejoin="round" stroke-linecap="round"/>
    <path d="M256.0 394.29977628635345Q191.03355704697987 394.29977628635345 152.6442953020134 358.6174496644295Q114.25503355704697 322.93512304250555 114.25503355704697 256.49217002237134V173.80760626398208Q114.25503355704697 107.36465324384784 152.6442953020134 71.68232662192392Q191.03355704697987 36.0 256.0 36.0Q320.96644295302013 36.0 359.35570469798654 71.68232662192392Q397.744966442953 107.36465324384784 397.744966442953 173.80760626398208V256.49217002237134Q397.744966442953 322.93512304250555 359.35570469798654 358.6174496644295Q320.96644295302013 394.29977628635345 256.0 394.29977628635345ZM256.0 336.2237136465324Q292.420581655481 336.2237136465324 312.5995525727069 315.06040268456377Q332.77852348993287 293.89709172259506 332.77852348993287 258.4608501118568V171.83892617449663Q332.77852348993287 136.40268456375838 312.5995525727069 115.23937360178971Q292.420581655481 94.07606263982103 256.0 94.07606263982103Q220.07158836689038 94.07606263982103 199.64653243847874 115.23937360178971Q179.2214765100671 136.40268456375838 179.2214765100671 171.83892617449663V258.4608501118568Q179.2214765100671 293.89709172259506 199.64653243847874 315.06040268456377Q220.07158836689038 336.2237136465324 256.0 336.2237136465324Z" fill="#a0c35a" stroke="#a0c35a" stroke-width="64" stroke-linejoin="round" stroke-linecap="round"/>
  </g>
  <g clip-path="url(#c2)">
    <path d="M278.6398210290828 476.0Q254.5234899328859 476.0 239.51230425055928 460.98881431767336Q224.50111856823267 445.9776286353467 224.50111856823267 420.8769574944071V387.40939597315435H287.49888143176736V411.03355704697987Q287.49888143176736 425.7986577181208 301.27964205816556 425.7986577181208H330.31767337807605V476.0Z" fill="#b0c4ef" stroke="#b0c4ef" stroke-width="26" stroke-linejoin="round" stroke-linecap="round"/>
    <path d="M256.0 394.29977628635345Q191.03355704697987 394.29977628635345 152.6442953020134 358.6174496644295Q114.25503355704697 322.93512304250555 114.25503355704697 256.49217002237134V173.80760626398208Q114.25503355704697 107.36465324384784 152.6442953020134 71.68232662192392Q191.03355704697987 36.0 256.0 36.0Q320.96644295302013 36.0 359.35570469798654 71.68232662192392Q397.744966442953 107.36465324384784 397.744966442953 173.80760626398208V256.49217002237134Q397.744966442953 322.93512304250555 359.35570469798654 358.6174496644295Q320.96644295302013 394.29977628635345 256.0 394.29977628635345ZM256.0 336.2237136465324Q292.420581655481 336.2237136465324 312.5995525727069 315.06040268456377Q332.77852348993287 293.89709172259506 332.77852348993287 258.4608501118568V171.83892617449663Q332.77852348993287 136.40268456375838 312.5995525727069 115.23937360178971Q292.420581655481 94.07606263982103 256.0 94.07606263982103Q220.07158836689038 94.07606263982103 199.64653243847874 115.23937360178971Q179.2214765100671 136.40268456375838 179.2214765100671 171.83892617449663V258.4608501118568Q179.2214765100671 293.89709172259506 199.64653243847874 315.06040268456377Q220.07158836689038 336.2237136465324 256.0 336.2237136465324Z" fill="#b0c4ef" stroke="#b0c4ef" stroke-width="64" stroke-linejoin="round" stroke-linecap="round"/>
  </g>
  <g clip-path="url(#c3)">
    <path d="M278.6398210290828 476.0Q254.5234899328859 476.0 239.51230425055928 460.98881431767336Q224.50111856823267 445.9776286353467 224.50111856823267 420.8769574944071V387.40939597315435H287.49888143176736V411.03355704697987Q287.49888143176736 425.7986577181208 301.27964205816556 425.7986577181208H330.31767337807605V476.0Z" fill="#ba81c5" stroke="#ba81c5" stroke-width="26" stroke-linejoin="round" stroke-linecap="round"/>
    <path d="M256.0 394.29977628635345Q191.03355704697987 394.29977628635345 152.6442953020134 358.6174496644295Q114.25503355704697 322.93512304250555 114.25503355704697 256.49217002237134V173.80760626398208Q114.25503355704697 107.36465324384784 152.6442953020134 71.68232662192392Q191.03355704697987 36.0 256.0 36.0Q320.96644295302013 36.0 359.35570469798654 71.68232662192392Q397.744966442953 107.36465324384784 397.744966442953 173.80760626398208V256.49217002237134Q397.744966442953 322.93512304250555 359.35570469798654 358.6174496644295Q320.96644295302013 394.29977628635345 256.0 394.29977628635345ZM256.0 336.2237136465324Q292.420581655481 336.2237136465324 312.5995525727069 315.06040268456377Q332.77852348993287 293.89709172259506 332.77852348993287 258.4608501118568V171.83892617449663Q332.77852348993287 136.40268456375838 312.5995525727069 115.23937360178971Q292.420581655481 94.07606263982103 256.0 94.07606263982103Q220.07158836689038 94.07606263982103 199.64653243847874 115.23937360178971Q179.2214765100671 136.40268456375838 179.2214765100671 171.83892617449663V258.4608501118568Q179.2214765100671 293.89709172259506 199.64653243847874 315.06040268456377Q220.07158836689038 336.2237136465324 256.0 336.2237136465324Z" fill="#ba81c5" stroke="#ba81c5" stroke-width="64" stroke-linejoin="round" stroke-linecap="round"/>
  </g>
</svg>
