<svg xmlns="http://www.w3.org/2000/svg" width="512" height="512" viewBox="0 0 512 512">
  <rect width="512" height="512" fill="#0c0c0c"/>
  <defs>
    <clipPath id="q"><path d="M255.99999999999997 371.87006711409396Q201.56993288590604 371.87006711409396 169.40671140939597 341.9747651006711Q137.2434899328859 312.0794630872483 137.2434899328859 256.4123489932886V187.1377181208054Q137.2434899328859 131.47060402684568 169.40671140939597 101.57530201342284Q201.56993288590604 71.68 255.99999999999997 71.68Q310.43006711409396 71.68 342.593288590604 101.57530201342284Q374.75651006711405 131.47060402684568 374.75651006711405 187.1377181208054V256.4123489932886Q374.75651006711405 312.0794630872483 342.593288590604 341.9747651006711Q310.43006711409396 371.87006711409396 255.99999999999997 371.87006711409396ZM255.99999999999997 323.2128859060403Q286.5138255033557 323.2128859060403 303.42013422818786 305.4818791946309Q320.3264429530201 287.7508724832215 320.3264429530201 258.061744966443V185.48832214765102Q320.3264429530201 155.7991946308725 303.42013422818786 138.06818791946313Q286.5138255033557 120.33718120805372 255.99999999999997 120.33718120805372Q225.89852348993287 120.33718120805372 208.78604026845636 138.06818791946313Q191.67355704697985 155.7991946308725 191.67355704697985 185.48832214765102V258.061744966443Q191.67355704697985 287.7508724832215 208.78604026845636 305.4818791946309Q225.89852348993287 323.2128859060403 255.99999999999997 323.2128859060403ZM274.96805369127514 440.32000000000005Q254.7629530201342 440.32000000000005 242.1863087248322 427.74335570469805Q229.6096644295302 415.166711409396 229.6096644295302 394.13691275167787V366.0971812080537H282.3903355704698V385.88993288590603Q282.3903355704698 398.26040268456376 293.9361073825503 398.26040268456376H318.2646979865772V440.32000000000005Z"/></clipPath>
  </defs>
  <g clip-path="url(#q)">
    <rect x="0" y="0" width="255.99999999999997" height="256.0" fill="#f9df6d"/>
    <rect x="255.99999999999997" y="0" width="256.0" height="256.0" fill="#a0c35a"/>
    <rect x="0" y="256.0" width="255.99999999999997" height="256.0" fill="#b0c4ef"/>
    <rect x="255.99999999999997" y="256.0" width="256.0" height="256.0" fill="#ba81c5"/>
  </g>
</svg>
